<?xml version="1.0" standalone="no"?>
<svg viewBox="0 0 200 200" xmlns="http://www.w3.org/2000/svg">
  <path fill="#FDD100" d="M35.5,-53.8C49.1,-53.7,65.4,-50.4,67.8,-40.9C70.3,-31.4,58.9,-15.7,56.6,-1.3C54.4,13.1,61.3,26.2,60.4,38.4C59.5,50.6,50.8,61.8,39.5,66.2C28.1,70.6,14.1,68.1,1.1,66.1C-11.8,64.2,-23.6,62.8,-29.7,55.4C-35.8,48,-36.2,34.5,-42.1,24.3C-48,14.1,-59.5,7,-64.1,-2.7C-68.7,-12.4,-66.6,-24.8,-60.3,-34.4C-54,-44,-43.6,-50.7,-32.9,-52.5C-22.1,-54.3,-11.1,-51.1,-0.1,-51C11,-50.9,21.9,-53.9,35.5,-53.8Z" transform="translate(100 100)" />
</svg>
